<?xml version="1.0" standalone="no"?>
<!DOCTYPE svg PUBLIC "-//W3C//DTD SVG 20010904//EN"
 "http://www.w3.org/TR/2001/REC-SVG-20010904/DTD/svg10.dtd">
<svg version="1.0" xmlns="http://www.w3.org/2000/svg"
 width="864.000000pt" height="980.000000pt" viewBox="0 0 864.000000 980.000000"
 preserveAspectRatio="xMidYMid meet">

<g transform="translate(0.000000,980.000000) scale(0.100000,-0.100000)"
fill="#000000" stroke="none">
<path d="M3950 9789 c-297 -25 -712 -158 -1004 -322 -384 -215 -769 -572
-1002 -927 -259 -396 -414 -842 -476 -1365 -16 -144 -17 -511 0 -645 54 -438
198 -793 449 -1114 132 -168 505 -509 761 -696 19 -14 36 -38 42 -59 6 -21 10
-198 10 -422 l0 -385 127 -105 c129 -107 240 -189 255 -189 4 0 8 118 8 262
l0 263 105 -105 105 -105 0 -225 0 -226 133 -52 c228 -90 450 -144 655 -158
l92 -7 0 327 0 326 110 0 110 0 0 -325 0 -325 59 0 c132 0 391 57 617 136
l131 45 7 61 c3 34 6 142 6 242 l0 181 102 100 103 100 3 -278 c1 -152 5 -277
8 -277 15 0 247 177 339 258 l100 88 5 411 5 410 130 98 c732 550 1025 1001
1121 1720 23 175 23 530 0 709 -54 415 -176 810 -348 1125 -206 379 -571 772
-944 1018 -294 194 -690 353 -1009 408 -186 31 -676 44 -915 24z m-215 -3037
c203 -56 326 -168 364 -333 16 -67 13 -240 -5 -327 -57 -278 -235 -514 -487
-647 -133 -70 -199 -87 -370 -93 -220 -7 -352 21 -506 106 -346 192 -544 612
-459 972 46 192 209 312 462 340 39 4 262 7 496 6 402 -2 429 -3 505 -24z
m2155 18 c240 -29 401 -126 462 -278 21 -52 23 -73 23 -227 0 -147 -3 -181
-23 -250 -81 -286 -310 -527 -587 -620 -138 -46 -374 -60 -515 -30 -409 86
-720 474 -720 899 0 263 89 394 320 471 42 14 113 29 156 34 115 12 785 13
884 1z m-1730 -1792 c65 -34 85 -67 85 -141 0 -186 -212 -353 -371 -292 -60
23 -84 62 -84 135 0 147 157 312 305 319 12 1 41 -9 65 -21z m487 -8 c178 -78
265 -335 143 -418 -29 -20 -45 -23 -95 -20 -156 10 -290 143 -302 302 -5 62
-5 64 32 105 58 64 126 74 222 31z"/>
<path d="M7663 4775 c-69 -19 -115 -43 -190 -100 -84 -62 -177 -166 -221 -245
-49 -87 -99 -238 -111 -333 -5 -43 -16 -88 -25 -101 -8 -13 -113 -83 -233
-154 -545 -325 -2399 -1399 -2521 -1461 l-44 -22 -111 61 c-343 190 -2431
1405 -2635 1534 -47 30 -72 74 -72 129 0 58 -38 185 -85 284 -90 191 -258 354
-409 398 -44 13 -86 16 -170 14 -102 -4 -117 -7 -179 -37 -129 -64 -222 -192
-247 -344 -10 -58 -10 -93 -1 -172 14 -109 14 -110 -46 -121 -92 -17 -219
-103 -276 -187 -148 -216 -85 -497 147 -654 130 -89 257 -113 501 -96 123 9
166 16 239 41 50 17 101 31 114 31 14 0 55 -17 91 -37 234 -130 2270 -1320
2288 -1337 17 -16 -530 -340 -561 -333 -12 3 -66 21 -121 41 -122 43 -249 61
-371 52 -250 -17 -434 -115 -518 -274 -81 -156 -86 -278 -16 -420 71 -143 191
-239 322 -257 l50 -7 -9 -52 c-15 -93 -9 -256 10 -314 43 -121 146 -231 259
-274 124 -47 307 -31 418 37 77 47 191 154 246 231 72 101 154 326 154 423 0
68 23 88 266 231 342 201 634 369 677 391 l38 20 133 -70 c138 -72 577 -324
726 -417 120 -74 136 -94 143 -177 8 -83 66 -260 114 -347 45 -79 184 -222
271 -278 99 -64 233 -86 362 -62 149 28 293 167 335 325 14 52 17 85 11 167
-3 57 -9 117 -12 134 -6 30 -5 31 38 38 193 30 335 184 369 402 37 230 -141
453 -421 531 -49 13 -102 18 -215 18 -166 0 -229 -12 -366 -70 l-77 -32 -248
148 c-137 82 -262 159 -277 172 l-29 22 479 282 c794 467 1876 1096 1892 1100
9 2 60 -12 113 -31 123 -45 243 -60 413 -53 190 8 298 51 421 169 100 96 146
201 145 332 -1 178 -93 321 -263 407 -31 16 -74 31 -96 35 -62 10 -67 15 -54
65 34 138 24 250 -33 366 -92 188 -321 292 -522 238z"/>
</g>
</svg>
