<?xml version="1.0" standalone="no"?>
<!DOCTYPE svg PUBLIC "-//W3C//DTD SVG 20010904//EN"
 "http://www.w3.org/TR/2001/REC-SVG-20010904/DTD/svg10.dtd">
<svg version="1.0" xmlns="http://www.w3.org/2000/svg"
 width="904.000000pt" height="980.000000pt" viewBox="0 0 904.000000 980.000000"
 preserveAspectRatio="xMidYMid meet">

<g transform="translate(0.000000,980.000000) scale(0.100000,-0.100000)"
fill="#000000" stroke="none">
<path d="M4344 9774 c-79 -41 -103 -71 -124 -157 -38 -152 -90 -247 -281 -518
-279 -396 -357 -556 -395 -812 -40 -274 23 -477 205 -665 111 -113 273 -220
411 -271 121 -44 181 -54 315 -54 204 1 349 40 495 131 156 97 280 253 342
432 32 93 33 98 33 265 -1 145 -4 182 -23 253 -63 231 -155 405 -448 847 -181
273 -231 363 -269 488 l-26 87 -93 0 c-81 0 -100 -3 -142 -26z m220 -874 c234
-366 334 -696 278 -917 -67 -265 -211 -364 -470 -324 -128 21 -246 85 -302
165 -16 25 -44 86 -61 138 -29 84 -31 101 -26 183 9 173 71 305 326 693 l145
223 18 -23 c10 -13 51 -75 92 -138z"/>
<path d="M4165 7069 c-141 -8 -363 -39 -490 -67 l-80 -18 -3 -271 -2 -271
-108 -6 c-671 -40 -1138 -100 -1812 -236 -488 -99 -750 -169 -991 -266 -304
-121 -500 -277 -590 -469 -81 -170 -98 -365 -74 -840 17 -333 17 -773 3 -3280
-1 -109 2 -129 31 -217 21 -63 49 -124 81 -172 221 -329 798 -561 1844 -741
1589 -273 3186 -286 4824 -39 986 148 1621 345 1947 605 138 109 210 215 261
384 31 104 33 175 15 555 -17 358 -14 2412 4 2882 16 412 12 576 -21 720 -68
303 -325 513 -839 686 -474 160 -1344 318 -2150 392 -252 22 -730 60 -769 60
l-26 0 0 260 0 259 -37 10 c-145 38 -348 67 -568 81 -177 11 -258 11 -450 -1z
m583 -1375 l2 -912 -101 -12 c-100 -12 -484 -8 -555 6 l-31 6 -8 903 c-4 497
-4 908 -1 914 5 8 107 10 349 9 l342 -3 3 -911z m-3553 -3145 c270 -33 530
-141 723 -300 89 -73 144 -142 224 -279 33 -58 65 -111 71 -118 7 -9 30 24 86
129 57 107 91 159 144 215 293 314 878 428 1374 268 186 -60 372 -180 472
-306 27 -35 82 -126 122 -202 l72 -139 73 144 c105 207 188 299 362 401 463
273 1196 222 1533 -107 77 -75 132 -159 193 -295 26 -58 51 -109 55 -113 4 -4
45 49 91 119 99 152 192 248 327 337 235 157 481 234 773 244 233 7 377 -21
553 -109 l77 -38 0 -543 0 -543 -77 -56 c-471 -334 -1236 -542 -2368 -643
-939 -83 -1972 -86 -2975 -9 -1206 92 -2024 308 -2508 661 l-72 53 2 563 3
562 80 32 c179 72 384 97 590 72z"/>
</g>
</svg>
